inDegrees=no
num_controls=7
num_derivatives=13
num_iterations=111
num_multipliers=7
num_parameters=0
num_slacks=7
num_states=26
objective=0.454511
objective_accelerations=0.043703
objective_balance=0.000812
objective_effort=0.035932
objective_height=0.367970
objective_ligament=0.006095
solver_duration=1284.452261
status=Solve_Succeeded
success=true
DataType=double
version=3
OpenSimVersion=4.5
endheader
time	/jointset/ground_pelvis/pelvis_tilt/value	/jointset/ground_pelvis/pelvis_tx/value	/jointset/ground_pelvis/pelvis_ty/value	/jointset/hip_r/hip_flexion_r/value	/jointset/hip_r/hip_adduction_r/value	/jointset/hip_r/hip_rotation_r/value	/jointset/back/lumbar_extension/value	/jointset/patellofemoral_r/patellar_flexion_r/value	/jointset/knee_r/knee_flexion_r/value	/jointset/knee_r/knee_adduction_r/value	/jointset/knee_r/knee_rotation_r/value	/jointset/ankle_r/ankle_angle_r/value	/jointset/subtalar_r/subtalar_angle_r/value	/jointset/ground_pelvis/pelvis_tilt/speed	/jointset/ground_pelvis/pelvis_tx/speed	/jointset/ground_pelvis/pelvis_ty/speed	/jointset/hip_r/hip_flexion_r/speed	/jointset/hip_r/hip_adduction_r/speed	/jointset/hip_r/hip_rotation_r/speed	/jointset/back/lumbar_extension/speed	/jointset/patellofemoral_r/patellar_flexion_r/speed	/jointset/knee_r/knee_flexion_r/speed	/jointset/knee_r/knee_adduction_r/speed	/jointset/knee_r/knee_rotation_r/speed	/jointset/ankle_r/ankle_angle_r/speed	/jointset/subtalar_r/subtalar_angle_r/speed	/forceset/tau_hip_flexion_r	/forceset/tau_hip_adduction_r	/forceset/tau_hip_rotation_r	/forceset/tau_knee_flexion_r	/forceset/tau_ankle_angle_r	/forceset/tau_subtalar_angle_r	/forceset/tau_lumbar_extension	lambda_cid13_p0	lambda_cid14_p0	lambda_cid14_p1	lambda_cid14_p2	lambda_cid14_p3	lambda_cid14_p4	lambda_cid14_p5	/jointset/ground_pelvis/pelvis_tilt/accel	/jointset/ground_pelvis/pelvis_tx/accel	/jointset/ground_pelvis/pelvis_ty/accel	/jointset/hip_r/hip_flexion_r/accel	/jointset/hip_r/hip_adduction_r/accel	/jointset/hip_r/hip_rotation_r/accel	/jointset/back/lumbar_extension/accel	/jointset/patellofemoral_r/patellar_flexion_r/accel	/jointset/knee_r/knee_flexion_r/accel	/jointset/knee_r/knee_adduction_r/accel	/jointset/knee_r/knee_rotation_r/accel	/jointset/ankle_r/ankle_angle_r/accel	/jointset/subtalar_r/subtalar_angle_r/accel	gamma_cid13_p0	gamma_cid14_p0	gamma_cid14_p1	gamma_cid14_p2	gamma_cid14_p3	gamma_cid14_p4	gamma_cid14_p5
1.5	-0.05678150548377187	0.04316375152506124	0.8262334675142368	0.7492672274326222	-0.2525614352794787	-0.06059777733306942	-0.6219200350181098	0.919604885888501	0.9196048858884329	0.06612946508648737	0.1740089939433928	0.3017248872477912	0.09431160218122275	0.3918278119305308	0.2076718557783565	0.461705918283865	-1.847097268308253	0.03913844613737778	-0.4997247566641152	0.8001900645851094	-1.89568353892415	-1.895683538924279	0.09767960472598858	0.003454114034766258	-0.5190098506859647	-0.1098148847848313	-0.1434606476169861	-0.006942516316581976	0.03544346408598895	-0.312294307571928	0.00953566313283377	-0.0132195226087647	0.2034019099074521	-9.801229703184495	-39.80667695886248	-11.34067958974504	0.6645989711211285	-1.75196304103312	-634.997219288344	63.97393985166165	0.02951300294027182	0.4906584480857547	-0.434438059927548	-0.8933013165491486	0.198158863026622	-0.1705049101060092	1.70251052066785	-1.404832362259322	-1.40483236225937	0.4899309395977022	-0.003802031309222848	-0.5919516724174081	0.1772733116790222	9.018391576406577e-08	5.361837556508843e-09	-1.439684370495586e-06	2.327189010985704e-07	1.433728761718906e-07	1.692447101294278e-07	-9.755362964637077e-07
1.51	-0.05286202886729235	0.04526477954866463	0.8308278473634607	0.7307536086230758	-0.2521607510073881	-0.06560351563421082	-0.6138344381996436	0.9005802930211324	0.9005802930210935	0.06713166183437667	0.174044543810893	0.2965057697651565	0.09322151849906717	0.3920137758510781	0.2125080577850326	0.4570709797326599	-1.855375367165049	0.04098496068734672	-0.501354427928088	0.8168126038258609	-1.908960345478186	-1.908960345478099	0.1027959913714446	0.003649181034612516	-0.5247318123417525	-0.1082011571140548	-0.1368355823744174	-0.008131484690337266	0.03469074943143512	-0.3082967968483361	0.01137898702473647	-0.01380932217814753	0.1971766346385048	-10.80856081938512	-38.96403661292787	-11.34429282252622	0.5452440214272798	-1.88848492436448	-630.5510598783817	63.55065302411185	0.005079169986103155	0.4762673034205305	-0.4928482377572132	-0.7573925115635609	0.1758557442835759	-0.1487894763336207	1.624621333435677	-1.247920419192594	-1.247920419160139	0.5277756216799769	0.03020159299257253	-0.5500114382661283	0.1533933219388503	9.328969930728148e-08	2.111800020815323e-08	-1.238008221199108e-06	3.296196163115973e-07	1.144169250566483e-07	1.706975404858575e-07	-8.438141434882933e-07
1.52	-0.0489423043949317	0.04741340283762716	0.8353729125301645	0.712164743156698	-0.2517420099911381	-0.07062346889635006	-0.6055861168472381	0.8814311689647781	0.8814311689647747	0.06818607906765517	0.1740818524538605	0.2912318940607426	0.09214756625905154	0.3918773831065893	0.2171909088501849	0.451842981779851	-1.862146599674597	0.04274979496937967	-0.5025677488636884	0.8327349713728881	-1.920589776720896	-1.920589776720592	0.108123701803319	0.003805869128900286	-0.529961495041807	-0.1065885963568032	-0.1302105171318516	-0.009320453064097409	0.03393803477686106	-0.3042992861247444	0.0132223109166381	-0.01439912174753778	0.1909513593695559	-11.81810446423341	-38.12333468881231	-11.34525688415367	0.422052530288259	-2.032633210661192	-626.1320091272556	63.16887570915894	-0.03495833006694471	0.4599882597809897	-0.5530499402482788	-0.5919280470995079	0.181822809439428	-0.08723484443151129	1.562476181923047	-1.075357299993982	-1.075357299994034	0.5321956968813655	-0.01147781242091887	-0.4934958812707775	0.1770399289740352	9.868647792684335e-08	3.36416284645896e-08	-1.128299351742187e-06	4.128347614526383e-07	9.663406479136685e-08	1.767247355562817e-07	-7.768617635578302e-07
1.53	-0.04502558792870847	0.04960802639576674	0.8398627945478232	0.6935157536656352	-0.2513060535878862	-0.0756533931428139	-0.5971821579505752	0.8621740304364313	0.8621740304364646	0.06929489123738564	0.1741204199573702	0.2859081902135829	0.0910897057987439	0.3914102058778412	0.2217016443605891	0.4460407765425123	-1.867393133330914	0.0444288441933646	-0.5033557142513275	0.8479287878981484	-1.930556359171772	-1.930556359171533	0.1136597966280402	0.003896825551985009	-0.5346944495663185	-0.1049805704896676	-0.1235981374316443	-0.0106157056929443	0.03316649648885073	-0.3003958381076828	0.01498409582100929	-0.01499948939325522	0.1847338190107534	-12.82670450423373	-37.32653204730875	-11.35644707524011	0.2981503309639348	-2.109647514761732	-621.9409769546269	62.8161016984461	-0.06094963441000202	0.441809945683576	-0.6076639087066114	-0.4522860254524526	0.1590425654107251	-0.06521729147857386	1.478631378596831	-0.9150953930764312	-0.9150953930859802	0.5673279839314653	0.01783332733596754	-0.4504403831541103	0.1530094956286383	1.06517438815023e-07	4.273068892611749e-08	-1.116305717114792e-06	4.815089883921944e-07	9.072261355416859e-08	1.876121931353253e-07	-7.78727267487627e-07
